<svg width="202" height="12" viewBox="0 0 202 12" fill="none" xmlns="http://www.w3.org/2000/svg">
<path d="M0.357955 0.818182H1.76989L4.59375 5.57102H4.71307L7.53693 0.818182H8.94886L5.26989 6.80398V11H4.03693V6.80398L0.357955 0.818182ZM12.4066 11.1591C11.7172 11.1591 11.1123 10.995 10.592 10.6669C10.0749 10.3388 9.67057 9.87973 9.37891 9.28977C9.09055 8.69981 8.94638 8.01042 8.94638 7.22159C8.94638 6.42614 9.09055 5.73177 9.37891 5.13849C9.67057 4.54522 10.0749 4.08452 10.592 3.75639C11.1123 3.42827 11.7172 3.2642 12.4066 3.2642C13.096 3.2642 13.6992 3.42827 14.2163 3.75639C14.7366 4.08452 15.141 4.54522 15.4293 5.13849C15.721 5.73177 15.8668 6.42614 15.8668 7.22159C15.8668 8.01042 15.721 8.69981 15.4293 9.28977C15.141 9.87973 14.7366 10.3388 14.2163 10.6669C13.6992 10.995 13.096 11.1591 12.4066 11.1591ZM12.4066 10.1051C12.9303 10.1051 13.3612 9.97088 13.6992 9.70241C14.0373 9.43395 14.2875 9.08097 14.4499 8.64347C14.6123 8.20597 14.6935 7.73201 14.6935 7.22159C14.6935 6.71117 14.6123 6.23556 14.4499 5.79474C14.2875 5.35393 14.0373 4.99763 13.6992 4.72585C13.3612 4.45407 12.9303 4.31818 12.4066 4.31818C11.8829 4.31818 11.4521 4.45407 11.114 4.72585C10.7759 4.99763 10.5257 5.35393 10.3633 5.79474C10.2009 6.23556 10.1197 6.71117 10.1197 7.22159C10.1197 7.73201 10.2009 8.20597 10.3633 8.64347C10.5257 9.08097 10.7759 9.43395 11.114 9.70241C11.4521 9.97088 11.8829 10.1051 12.4066 10.1051ZM22.4703 7.87784V3.36364H23.6436V11H22.4703V9.70739H22.3908C22.2118 10.0952 21.9334 10.425 21.5556 10.6967C21.1777 10.9652 20.7005 11.0994 20.1238 11.0994C19.6465 11.0994 19.2222 10.995 18.851 10.7862C18.4798 10.5741 18.1882 10.2559 17.976 9.83168C17.7639 9.40412 17.6578 8.86553 17.6578 8.21591V3.36364H18.8311V8.13636C18.8311 8.69318 18.9869 9.13731 19.2985 9.46875C19.6133 9.80019 20.0144 9.96591 20.5016 9.96591C20.7933 9.96591 21.0899 9.89134 21.3915 9.74219C21.6964 9.59304 21.9516 9.36435 22.1571 9.05611C22.3659 8.74787 22.4703 8.35511 22.4703 7.87784ZM25.7926 11V3.36364H26.9261V4.51705H27.0057C27.1449 4.1392 27.3968 3.83262 27.7614 3.5973C28.1259 3.36198 28.5369 3.24432 28.9943 3.24432C29.0805 3.24432 29.1882 3.24597 29.3175 3.24929C29.4467 3.2526 29.5445 3.25758 29.6108 3.2642V4.45739C29.571 4.44744 29.4799 4.43253 29.3374 4.41264C29.1982 4.38944 29.0507 4.37784 28.8949 4.37784C28.5237 4.37784 28.1922 4.45573 27.9006 4.61151C27.6122 4.76397 27.3835 4.97609 27.2145 5.24787C27.0488 5.51634 26.9659 5.82292 26.9659 6.16761V11H25.7926ZM38.1408 11.1591C37.405 11.1591 36.7703 10.9967 36.2367 10.6719C35.7064 10.3438 35.2971 9.88636 35.0087 9.29972C34.7237 8.70975 34.5811 8.02367 34.5811 7.24148C34.5811 6.45928 34.7237 5.76989 35.0087 5.1733C35.2971 4.57339 35.6981 4.10606 36.2118 3.77131C36.7289 3.43324 37.3321 3.2642 38.0215 3.2642C38.4192 3.2642 38.812 3.33049 39.1998 3.46307C39.5875 3.59564 39.9405 3.81108 40.2587 4.10938C40.5769 4.40436 40.8304 4.79545 41.0194 5.28267C41.2083 5.76989 41.3027 6.36979 41.3027 7.08239V7.57955H35.4164V6.56534H40.1096C40.1096 6.13447 40.0234 5.75 39.851 5.41193C39.682 5.07386 39.44 4.80705 39.1252 4.61151C38.8136 4.41596 38.4457 4.31818 38.0215 4.31818C37.5542 4.31818 37.1498 4.43419 36.8084 4.66619C36.4703 4.89489 36.2102 5.19318 36.0279 5.56108C35.8456 5.92898 35.7544 6.32339 35.7544 6.74432V7.42045C35.7544 7.99716 35.8539 8.48603 36.0527 8.88707C36.2549 9.2848 36.535 9.58807 36.8929 9.79688C37.2509 10.0024 37.6668 10.1051 38.1408 10.1051C38.449 10.1051 38.7275 10.062 38.976 9.97585C39.2279 9.88636 39.445 9.75379 39.6273 9.57812C39.8096 9.39915 39.9505 9.17708 40.0499 8.91193L41.1834 9.23011C41.0641 9.61458 40.8636 9.95265 40.5819 10.2443C40.3001 10.5327 39.9521 10.758 39.5378 10.9205C39.1235 11.0795 38.6578 11.1591 38.1408 11.1591ZM43.0875 11V3.36364H44.2211V4.55682H44.3205C44.4796 4.14915 44.7364 3.83262 45.0911 3.60724C45.4457 3.37855 45.8716 3.2642 46.3688 3.2642C46.8726 3.2642 47.2918 3.37855 47.6266 3.60724C47.9647 3.83262 48.2282 4.14915 48.4171 4.55682H48.4966C48.6922 4.16241 48.9855 3.84919 49.3766 3.61719C49.7677 3.38187 50.2367 3.2642 50.7836 3.2642C51.4663 3.2642 52.0248 3.47798 52.459 3.90554C52.8932 4.32978 53.1103 4.991 53.1103 5.8892V11H51.937V5.8892C51.937 5.32576 51.7828 4.92306 51.4746 4.68111C51.1664 4.43916 50.8034 4.31818 50.3858 4.31818C49.8489 4.31818 49.4329 4.48059 49.138 4.8054C48.843 5.12689 48.6955 5.53456 48.6955 6.02841V11H47.5023V5.76989C47.5023 5.3357 47.3614 4.98603 47.0797 4.72088C46.798 4.45241 46.4351 4.31818 45.9909 4.31818C45.686 4.31818 45.401 4.39938 45.1358 4.56179C44.874 4.72419 44.6619 4.94957 44.4995 5.23793C44.3404 5.52296 44.2608 5.85275 44.2608 6.22727V11H43.0875ZM57.5027 11.179C57.0188 11.179 56.5796 11.0878 56.1852 10.9055C55.7908 10.7199 55.4776 10.4531 55.2456 10.1051C55.0136 9.75379 54.8975 9.32955 54.8975 8.83239C54.8975 8.39489 54.9837 8.04025 55.1561 7.76847C55.3284 7.49337 55.5588 7.27794 55.8471 7.12216C56.1355 6.96638 56.4537 6.85038 56.8017 6.77415C57.153 6.6946 57.506 6.63163 57.8606 6.58523C58.3246 6.52557 58.7008 6.48082 58.9892 6.45099C59.2808 6.41785 59.493 6.36316 59.6255 6.28693C59.7614 6.2107 59.8294 6.07812 59.8294 5.8892V5.84943C59.8294 5.3589 59.6951 4.97775 59.4267 4.70597C59.1615 4.43419 58.7588 4.2983 58.2186 4.2983C57.6584 4.2983 57.2193 4.42093 56.9011 4.66619C56.5829 4.91146 56.3592 5.1733 56.2299 5.4517L55.1163 5.05398C55.3152 4.58996 55.5803 4.22869 55.9118 3.97017C56.2465 3.70833 56.6111 3.52604 57.0055 3.4233C57.4032 3.31723 57.7943 3.2642 58.1788 3.2642C58.4241 3.2642 58.7058 3.29403 59.024 3.35369C59.3455 3.41004 59.6554 3.5277 59.9537 3.70668C60.2553 3.88565 60.5055 4.15578 60.7044 4.51705C60.9032 4.87831 61.0027 5.36222 61.0027 5.96875V11H59.8294V9.96591H59.7697C59.6902 10.1316 59.5576 10.3089 59.372 10.4979C59.1864 10.6868 58.9395 10.8475 58.6312 10.9801C58.323 11.1127 57.9468 11.179 57.5027 11.179ZM57.6816 10.125C58.1457 10.125 58.5368 10.0339 58.8549 9.85156C59.1764 9.66927 59.4184 9.43395 59.5808 9.1456C59.7465 8.85724 59.8294 8.55398 59.8294 8.2358V7.16193C59.7797 7.22159 59.6703 7.27628 59.5012 7.32599C59.3355 7.3724 59.1433 7.41383 58.9245 7.45028C58.7091 7.48343 58.4986 7.51326 58.2931 7.53977C58.091 7.56297 57.9269 7.58286 57.801 7.59943C57.496 7.6392 57.211 7.70384 56.9458 7.79332C56.684 7.8795 56.4719 8.01042 56.3095 8.18608C56.1504 8.35843 56.0708 8.59375 56.0708 8.89205C56.0708 9.29972 56.2217 9.60795 56.5233 9.81676C56.8282 10.0223 57.2143 10.125 57.6816 10.125ZM63.1442 11V3.36364H64.3175V11H63.1442ZM63.7408 2.09091C63.5121 2.09091 63.3149 2.01302 63.1491 1.85724C62.9867 1.70147 62.9055 1.5142 62.9055 1.29545C62.9055 1.0767 62.9867 0.889441 63.1491 0.733664C63.3149 0.577888 63.5121 0.5 63.7408 0.5C63.9695 0.5 64.165 0.577888 64.3274 0.733664C64.4931 0.889441 64.576 1.0767 64.576 1.29545C64.576 1.5142 64.4931 1.70147 64.3274 1.85724C64.165 2.01302 63.9695 2.09091 63.7408 2.09091ZM67.6397 0.818182V11H66.4664V0.818182H67.6397ZM75.9734 11.179C75.4895 11.179 75.0503 11.0878 74.6559 10.9055C74.2615 10.7199 73.9483 10.4531 73.7163 10.1051C73.4843 9.75379 73.3683 9.32955 73.3683 8.83239C73.3683 8.39489 73.4544 8.04025 73.6268 7.76847C73.7991 7.49337 74.0295 7.27794 74.3178 7.12216C74.6062 6.96638 74.9244 6.85038 75.2724 6.77415C75.6237 6.6946 75.9767 6.63163 76.3313 6.58523C76.7953 6.52557 77.1715 6.48082 77.4599 6.45099C77.7515 6.41785 77.9637 6.36316 78.0962 6.28693C78.2321 6.2107 78.3001 6.07812 78.3001 5.8892V5.84943C78.3001 5.3589 78.1658 4.97775 77.8974 4.70597C77.6322 4.43419 77.2295 4.2983 76.6893 4.2983C76.1291 4.2983 75.69 4.42093 75.3718 4.66619C75.0536 4.91146 74.8299 5.1733 74.7006 5.4517L73.587 5.05398C73.7859 4.58996 74.051 4.22869 74.3825 3.97017C74.7172 3.70833 75.0818 3.52604 75.4762 3.4233C75.8739 3.31723 76.265 3.2642 76.6495 3.2642C76.8948 3.2642 77.1765 3.29403 77.4947 3.35369C77.8162 3.41004 78.1261 3.5277 78.4244 3.70668C78.726 3.88565 78.9762 4.15578 79.1751 4.51705C79.3739 4.87831 79.4734 5.36222 79.4734 5.96875V11H78.3001V9.96591H78.2404C78.1609 10.1316 78.0283 10.3089 77.8427 10.4979C77.6571 10.6868 77.4102 10.8475 77.1019 10.9801C76.7937 11.1127 76.4175 11.179 75.9734 11.179ZM76.1523 10.125C76.6164 10.125 77.0075 10.0339 77.3256 9.85156C77.6471 9.66927 77.8891 9.43395 78.0515 9.1456C78.2172 8.85724 78.3001 8.55398 78.3001 8.2358V7.16193C78.2504 7.22159 78.141 7.27628 77.9719 7.32599C77.8062 7.3724 77.614 7.41383 77.3952 7.45028C77.1798 7.48343 76.9693 7.51326 76.7638 7.53977C76.5617 7.56297 76.3976 7.58286 76.2717 7.59943C75.9667 7.6392 75.6817 7.70384 75.4165 7.79332C75.1547 7.8795 74.9426 8.01042 74.7802 8.18608C74.6211 8.35843 74.5415 8.59375 74.5415 8.89205C74.5415 9.29972 74.6924 9.60795 74.994 9.81676C75.2989 10.0223 75.685 10.125 76.1523 10.125ZM84.4984 11.1591C83.862 11.1591 83.3002 10.9983 82.813 10.6768C82.3258 10.352 81.9447 9.89465 81.6696 9.30469C81.3945 8.71141 81.2569 8.01042 81.2569 7.2017C81.2569 6.39962 81.3945 5.7036 81.6696 5.11364C81.9447 4.52367 82.3275 4.06794 82.818 3.74645C83.3085 3.42495 83.8753 3.2642 84.5183 3.2642C85.0154 3.2642 85.4082 3.34706 85.6966 3.51278C85.9882 3.67519 86.2103 3.8608 86.3627 4.0696C86.5185 4.27509 86.6395 4.44413 86.7257 4.5767H86.8251V0.818182H87.9984V11H86.8649V9.8267H86.7257C86.6395 9.96591 86.5169 10.1416 86.3578 10.3537C86.1987 10.5625 85.9717 10.7498 85.6767 10.9155C85.3817 11.0779 84.9889 11.1591 84.4984 11.1591ZM84.6575 10.1051C85.1281 10.1051 85.5259 9.98248 85.8507 9.73722C86.1755 9.48864 86.4224 9.1456 86.5914 8.7081C86.7605 8.26728 86.845 7.75852 86.845 7.18182C86.845 6.61174 86.7621 6.11293 86.5964 5.68537C86.4307 5.2545 86.1854 4.91974 85.8606 4.68111C85.5358 4.43916 85.1348 4.31818 84.6575 4.31818C84.1603 4.31818 83.746 4.44579 83.4146 4.70099C83.0865 4.95289 82.8395 5.29593 82.6738 5.73011C82.5114 6.16098 82.4302 6.64489 82.4302 7.18182C82.4302 7.72538 82.5131 8.21922 82.6788 8.66335C82.8478 9.10417 83.0964 9.45549 83.4245 9.71733C83.756 9.97585 84.167 10.1051 84.6575 10.1051ZM93.1937 11.1591C92.5574 11.1591 91.9956 10.9983 91.5083 10.6768C91.0211 10.352 90.64 9.89465 90.3649 9.30469C90.0898 8.71141 89.9522 8.01042 89.9522 7.2017C89.9522 6.39962 90.0898 5.7036 90.3649 5.11364C90.64 4.52367 91.0228 4.06794 91.5133 3.74645C92.0038 3.42495 92.5706 3.2642 93.2136 3.2642C93.7108 3.2642 94.1035 3.34706 94.3919 3.51278C94.6835 3.67519 94.9056 3.8608 95.0581 4.0696C95.2138 4.27509 95.3348 4.44413 95.421 4.5767H95.5204V0.818182H96.6937V11H95.5602V9.8267H95.421C95.3348 9.96591 95.2122 10.1416 95.0531 10.3537C94.894 10.5625 94.667 10.7498 94.372 10.9155C94.077 11.0779 93.6842 11.1591 93.1937 11.1591ZM93.3528 10.1051C93.8234 10.1051 94.2212 9.98248 94.546 9.73722C94.8708 9.48864 95.1177 9.1456 95.2868 8.7081C95.4558 8.26728 95.5403 7.75852 95.5403 7.18182C95.5403 6.61174 95.4574 6.11293 95.2917 5.68537C95.126 5.2545 94.8807 4.91974 94.5559 4.68111C94.2311 4.43916 93.8301 4.31818 93.3528 4.31818C92.8556 4.31818 92.4413 4.44579 92.1099 4.70099C91.7818 4.95289 91.5349 5.29593 91.3691 5.73011C91.2067 6.16098 91.1255 6.64489 91.1255 7.18182C91.1255 7.72538 91.2084 8.21922 91.3741 8.66335C91.5431 9.10417 91.7917 9.45549 92.1199 9.71733C92.4513 9.97585 92.8623 10.1051 93.3528 10.1051ZM99.0055 11V3.36364H100.139V4.51705H100.219C100.358 4.1392 100.61 3.83262 100.974 3.5973C101.339 3.36198 101.75 3.24432 102.207 3.24432C102.293 3.24432 102.401 3.24597 102.53 3.24929C102.66 3.2526 102.757 3.25758 102.824 3.2642V4.45739C102.784 4.44744 102.693 4.43253 102.55 4.41264C102.411 4.38944 102.264 4.37784 102.108 4.37784C101.737 4.37784 101.405 4.45573 101.113 4.61151C100.825 4.76397 100.596 4.97609 100.427 5.24787C100.262 5.51634 100.179 5.82292 100.179 6.16761V11H99.0055ZM107.184 11.1591C106.448 11.1591 105.813 10.9967 105.28 10.6719C104.749 10.3438 104.34 9.88636 104.052 9.29972C103.767 8.70975 103.624 8.02367 103.624 7.24148C103.624 6.45928 103.767 5.76989 104.052 5.1733C104.34 4.57339 104.741 4.10606 105.255 3.77131C105.772 3.43324 106.375 3.2642 107.064 3.2642C107.462 3.2642 107.855 3.33049 108.243 3.46307C108.631 3.59564 108.983 3.81108 109.302 4.10938C109.62 4.40436 109.873 4.79545 110.062 5.28267C110.251 5.76989 110.346 6.36979 110.346 7.08239V7.57955H104.459V6.56534H109.153C109.153 6.13447 109.066 5.75 108.894 5.41193C108.725 5.07386 108.483 4.80705 108.168 4.61151C107.857 4.41596 107.489 4.31818 107.064 4.31818C106.597 4.31818 106.193 4.43419 105.851 4.66619C105.513 4.89489 105.253 5.19318 105.071 5.56108C104.889 5.92898 104.797 6.32339 104.797 6.74432V7.42045C104.797 7.99716 104.897 8.48603 105.096 8.88707C105.298 9.2848 105.578 9.58807 105.936 9.79688C106.294 10.0024 106.71 10.1051 107.184 10.1051C107.492 10.1051 107.77 10.062 108.019 9.97585C108.271 9.88636 108.488 9.75379 108.67 9.57812C108.853 9.39915 108.993 9.17708 109.093 8.91193L110.226 9.23011C110.107 9.61458 109.907 9.95265 109.625 10.2443C109.343 10.5327 108.995 10.758 108.581 10.9205C108.166 11.0795 107.701 11.1591 107.184 11.1591ZM117.54 5.07386L116.486 5.37216C116.419 5.1965 116.322 5.0258 116.192 4.86009C116.066 4.69105 115.894 4.55185 115.675 4.44247C115.456 4.3331 115.176 4.27841 114.835 4.27841C114.368 4.27841 113.978 4.38613 113.667 4.60156C113.358 4.81368 113.204 5.08381 113.204 5.41193C113.204 5.7036 113.31 5.93395 113.523 6.10298C113.735 6.27202 114.066 6.41288 114.517 6.52557L115.65 6.80398C116.333 6.9697 116.842 7.22325 117.177 7.56463C117.511 7.9027 117.679 8.33854 117.679 8.87216C117.679 9.30966 117.553 9.70076 117.301 10.0455C117.052 10.3902 116.704 10.6619 116.257 10.8608C115.809 11.0597 115.289 11.1591 114.696 11.1591C113.917 11.1591 113.272 10.9901 112.762 10.652C112.251 10.3139 111.928 9.82008 111.792 9.17045L112.906 8.89205C113.012 9.30303 113.213 9.61127 113.508 9.81676C113.806 10.0223 114.195 10.125 114.676 10.125C115.223 10.125 115.657 10.009 115.979 9.77699C116.303 9.54167 116.466 9.25994 116.466 8.93182C116.466 8.66667 116.373 8.4446 116.187 8.26562C116.002 8.08333 115.717 7.94744 115.332 7.85795L114.059 7.55966C113.36 7.39394 112.846 7.13707 112.518 6.78906C112.193 6.43774 112.031 5.99858 112.031 5.47159C112.031 5.04072 112.152 4.65956 112.394 4.32812C112.639 3.99669 112.972 3.73651 113.393 3.54758C113.818 3.35866 114.298 3.2642 114.835 3.2642C115.591 3.2642 116.184 3.42992 116.615 3.76136C117.049 4.0928 117.357 4.5303 117.54 5.07386ZM124.854 5.07386L123.8 5.37216C123.734 5.1965 123.636 5.0258 123.507 4.86009C123.381 4.69105 123.208 4.55185 122.99 4.44247C122.771 4.3331 122.491 4.27841 122.15 4.27841C121.682 4.27841 121.293 4.38613 120.981 4.60156C120.673 4.81368 120.519 5.08381 120.519 5.41193C120.519 5.7036 120.625 5.93395 120.837 6.10298C121.049 6.27202 121.381 6.41288 121.831 6.52557L122.965 6.80398C123.648 6.9697 124.156 7.22325 124.491 7.56463C124.826 7.9027 124.993 8.33854 124.993 8.87216C124.993 9.30966 124.867 9.70076 124.615 10.0455C124.367 10.3902 124.019 10.6619 123.571 10.8608C123.124 11.0597 122.604 11.1591 122.01 11.1591C121.231 11.1591 120.587 10.9901 120.076 10.652C119.566 10.3139 119.243 9.82008 119.107 9.17045L120.221 8.89205C120.327 9.30303 120.527 9.61127 120.822 9.81676C121.12 10.0223 121.51 10.125 121.99 10.125C122.537 10.125 122.971 10.009 123.293 9.77699C123.618 9.54167 123.78 9.25994 123.78 8.93182C123.78 8.66667 123.687 8.4446 123.502 8.26562C123.316 8.08333 123.031 7.94744 122.647 7.85795L121.374 7.55966C120.675 7.39394 120.161 7.13707 119.833 6.78906C119.508 6.43774 119.346 5.99858 119.346 5.47159C119.346 5.04072 119.467 4.65956 119.708 4.32812C119.954 3.99669 120.287 3.73651 120.708 3.54758C121.132 3.35866 121.613 3.2642 122.15 3.2642C122.905 3.2642 123.498 3.42992 123.929 3.76136C124.364 4.0928 124.672 4.5303 124.854 5.07386ZM132.944 11.179C132.46 11.179 132.021 11.0878 131.627 10.9055C131.232 10.7199 130.919 10.4531 130.687 10.1051C130.455 9.75379 130.339 9.32955 130.339 8.83239C130.339 8.39489 130.425 8.04025 130.597 7.76847C130.77 7.49337 131 7.27794 131.289 7.12216C131.577 6.96638 131.895 6.85038 132.243 6.77415C132.594 6.6946 132.947 6.63163 133.302 6.58523C133.766 6.52557 134.142 6.48082 134.431 6.45099C134.722 6.41785 134.934 6.36316 135.067 6.28693C135.203 6.2107 135.271 6.07812 135.271 5.8892V5.84943C135.271 5.3589 135.137 4.97775 134.868 4.70597C134.603 4.43419 134.2 4.2983 133.66 4.2983C133.1 4.2983 132.661 4.42093 132.343 4.66619C132.024 4.91146 131.801 5.1733 131.671 5.4517L130.558 5.05398C130.757 4.58996 131.022 4.22869 131.353 3.97017C131.688 3.70833 132.052 3.52604 132.447 3.4233C132.845 3.31723 133.236 3.2642 133.62 3.2642C133.865 3.2642 134.147 3.29403 134.465 3.35369C134.787 3.41004 135.097 3.5277 135.395 3.70668C135.697 3.88565 135.947 4.15578 136.146 4.51705C136.345 4.87831 136.444 5.36222 136.444 5.96875V11H135.271V9.96591H135.211C135.132 10.1316 134.999 10.3089 134.813 10.4979C134.628 10.6868 134.381 10.8475 134.073 10.9801C133.764 11.1127 133.388 11.179 132.944 11.179ZM133.123 10.125C133.587 10.125 133.978 10.0339 134.296 9.85156C134.618 9.66927 134.86 9.43395 135.022 9.1456C135.188 8.85724 135.271 8.55398 135.271 8.2358V7.16193C135.221 7.22159 135.112 7.27628 134.943 7.32599C134.777 7.3724 134.585 7.41383 134.366 7.45028C134.151 7.48343 133.94 7.51326 133.735 7.53977C133.532 7.56297 133.368 7.58286 133.242 7.59943C132.937 7.6392 132.652 7.70384 132.387 7.79332C132.125 7.8795 131.913 8.01042 131.751 8.18608C131.592 8.35843 131.512 8.59375 131.512 8.89205C131.512 9.29972 131.663 9.60795 131.965 9.81676C132.27 10.0223 132.656 10.125 133.123 10.125ZM141.469 11.1591C140.833 11.1591 140.271 10.9983 139.784 10.6768C139.297 10.352 138.915 9.89465 138.64 9.30469C138.365 8.71141 138.228 8.01042 138.228 7.2017C138.228 6.39962 138.365 5.7036 138.64 5.11364C138.915 4.52367 139.298 4.06794 139.789 3.74645C140.279 3.42495 140.846 3.2642 141.489 3.2642C141.986 3.2642 142.379 3.34706 142.667 3.51278C142.959 3.67519 143.181 3.8608 143.333 4.0696C143.489 4.27509 143.61 4.44413 143.696 4.5767H143.796V0.818182H144.969V11H143.836V9.8267H143.696C143.61 9.96591 143.488 10.1416 143.328 10.3537C143.169 10.5625 142.942 10.7498 142.647 10.9155C142.352 11.0779 141.96 11.1591 141.469 11.1591ZM141.628 10.1051C142.099 10.1051 142.497 9.98248 142.821 9.73722C143.146 9.48864 143.393 9.1456 143.562 8.7081C143.731 8.26728 143.816 7.75852 143.816 7.18182C143.816 6.61174 143.733 6.11293 143.567 5.68537C143.401 5.2545 143.156 4.91974 142.831 4.68111C142.507 4.43916 142.105 4.31818 141.628 4.31818C141.131 4.31818 140.717 4.44579 140.385 4.70099C140.057 4.95289 139.81 5.29593 139.645 5.73011C139.482 6.16098 139.401 6.64489 139.401 7.18182C139.401 7.72538 139.484 8.21922 139.65 8.66335C139.819 9.10417 140.067 9.45549 140.395 9.71733C140.727 9.97585 141.138 10.1051 141.628 10.1051ZM150.164 11.1591C149.528 11.1591 148.966 10.9983 148.479 10.6768C147.992 10.352 147.611 9.89465 147.336 9.30469C147.06 8.71141 146.923 8.01042 146.923 7.2017C146.923 6.39962 147.06 5.7036 147.336 5.11364C147.611 4.52367 147.993 4.06794 148.484 3.74645C148.975 3.42495 149.541 3.2642 150.184 3.2642C150.681 3.2642 151.074 3.34706 151.363 3.51278C151.654 3.67519 151.876 3.8608 152.029 4.0696C152.185 4.27509 152.306 4.44413 152.392 4.5767H152.491V0.818182H153.664V11H152.531V9.8267H152.392C152.306 9.96591 152.183 10.1416 152.024 10.3537C151.865 10.5625 151.638 10.7498 151.343 10.9155C151.048 11.0779 150.655 11.1591 150.164 11.1591ZM150.324 10.1051C150.794 10.1051 151.192 9.98248 151.517 9.73722C151.842 9.48864 152.088 9.1456 152.257 8.7081C152.426 8.26728 152.511 7.75852 152.511 7.18182C152.511 6.61174 152.428 6.11293 152.262 5.68537C152.097 5.2545 151.851 4.91974 151.527 4.68111C151.202 4.43916 150.801 4.31818 150.324 4.31818C149.826 4.31818 149.412 4.44579 149.081 4.70099C148.752 4.95289 148.506 5.29593 148.34 5.73011C148.177 6.16098 148.096 6.64489 148.096 7.18182C148.096 7.72538 148.179 8.21922 148.345 8.66335C148.514 9.10417 148.762 9.45549 149.091 9.71733C149.422 9.97585 149.833 10.1051 150.324 10.1051ZM161.385 5.07386L160.331 5.37216C160.265 5.1965 160.167 5.0258 160.038 4.86009C159.912 4.69105 159.74 4.55185 159.521 4.44247C159.302 4.3331 159.022 4.27841 158.681 4.27841C158.213 4.27841 157.824 4.38613 157.512 4.60156C157.204 4.81368 157.05 5.08381 157.05 5.41193C157.05 5.7036 157.156 5.93395 157.368 6.10298C157.58 6.27202 157.912 6.41288 158.363 6.52557L159.496 6.80398C160.179 6.9697 160.688 7.22325 161.022 7.56463C161.357 7.9027 161.525 8.33854 161.525 8.87216C161.525 9.30966 161.399 9.70076 161.147 10.0455C160.898 10.3902 160.55 10.6619 160.103 10.8608C159.655 11.0597 159.135 11.1591 158.542 11.1591C157.763 11.1591 157.118 10.9901 156.608 10.652C156.097 10.3139 155.774 9.82008 155.638 9.17045L156.752 8.89205C156.858 9.30303 157.058 9.61127 157.353 9.81676C157.652 10.0223 158.041 10.125 158.522 10.125C159.069 10.125 159.503 10.009 159.824 9.77699C160.149 9.54167 160.311 9.25994 160.311 8.93182C160.311 8.66667 160.219 8.4446 160.033 8.26562C159.847 8.08333 159.562 7.94744 159.178 7.85795L157.905 7.55966C157.206 7.39394 156.692 7.13707 156.364 6.78906C156.039 6.43774 155.877 5.99858 155.877 5.47159C155.877 5.04072 155.998 4.65956 156.24 4.32812C156.485 3.99669 156.818 3.73651 157.239 3.54758C157.663 3.35866 158.144 3.2642 158.681 3.2642C159.436 3.2642 160.03 3.42992 160.461 3.76136C160.895 4.0928 161.203 4.5303 161.385 5.07386ZM165.538 11.179C165.054 11.179 164.615 11.0878 164.22 10.9055C163.826 10.7199 163.513 10.4531 163.281 10.1051C163.049 9.75379 162.933 9.32955 162.933 8.83239C162.933 8.39489 163.019 8.04025 163.191 7.76847C163.364 7.49337 163.594 7.27794 163.882 7.12216C164.171 6.96638 164.489 6.85038 164.837 6.77415C165.188 6.6946 165.541 6.63163 165.896 6.58523C166.36 6.52557 166.736 6.48082 167.024 6.45099C167.316 6.41785 167.528 6.36316 167.661 6.28693C167.797 6.2107 167.865 6.07812 167.865 5.8892V5.84943C167.865 5.3589 167.73 4.97775 167.462 4.70597C167.197 4.43419 166.794 4.2983 166.254 4.2983C165.694 4.2983 165.254 4.42093 164.936 4.66619C164.618 4.91146 164.394 5.1733 164.265 5.4517L163.151 5.05398C163.35 4.58996 163.615 4.22869 163.947 3.97017C164.282 3.70833 164.646 3.52604 165.041 3.4233C165.438 3.31723 165.829 3.2642 166.214 3.2642C166.459 3.2642 166.741 3.29403 167.059 3.35369C167.381 3.41004 167.691 3.5277 167.989 3.70668C168.29 3.88565 168.541 4.15578 168.74 4.51705C168.938 4.87831 169.038 5.36222 169.038 5.96875V11H167.865V9.96591H167.805C167.725 10.1316 167.593 10.3089 167.407 10.4979C167.222 10.6868 166.975 10.8475 166.666 10.9801C166.358 11.1127 165.982 11.179 165.538 11.179ZM165.717 10.125C166.181 10.125 166.572 10.0339 166.89 9.85156C167.212 9.66927 167.454 9.43395 167.616 9.1456C167.782 8.85724 167.865 8.55398 167.865 8.2358V7.16193C167.815 7.22159 167.705 7.27628 167.536 7.32599C167.371 7.3724 167.178 7.41383 166.96 7.45028C166.744 7.48343 166.534 7.51326 166.328 7.53977C166.126 7.56297 165.962 7.58286 165.836 7.59943C165.531 7.6392 165.246 7.70384 164.981 7.79332C164.719 7.8795 164.507 8.01042 164.345 8.18608C164.186 8.35843 164.106 8.59375 164.106 8.89205C164.106 9.29972 164.257 9.60795 164.558 9.81676C164.863 10.0223 165.249 10.125 165.717 10.125ZM174.063 11.1591C173.426 11.1591 172.865 10.9983 172.377 10.6768C171.89 10.352 171.509 9.89465 171.234 9.30469C170.959 8.71141 170.821 8.01042 170.821 7.2017C170.821 6.39962 170.959 5.7036 171.234 5.11364C171.509 4.52367 171.892 4.06794 172.382 3.74645C172.873 3.42495 173.44 3.2642 174.083 3.2642C174.58 3.2642 174.973 3.34706 175.261 3.51278C175.553 3.67519 175.775 3.8608 175.927 4.0696C176.083 4.27509 176.204 4.44413 176.29 4.5767H176.39V0.818182H177.563V11H176.429V9.8267H176.29C176.204 9.96591 176.081 10.1416 175.922 10.3537C175.763 10.5625 175.536 10.7498 175.241 10.9155C174.946 11.0779 174.553 11.1591 174.063 11.1591ZM174.222 10.1051C174.693 10.1051 175.09 9.98248 175.415 9.73722C175.74 9.48864 175.987 9.1456 176.156 8.7081C176.325 8.26728 176.409 7.75852 176.409 7.18182C176.409 6.61174 176.327 6.11293 176.161 5.68537C175.995 5.2545 175.75 4.91974 175.425 4.68111C175.1 4.43916 174.699 4.31818 174.222 4.31818C173.725 4.31818 173.31 4.44579 172.979 4.70099C172.651 4.95289 172.404 5.29593 172.238 5.73011C172.076 6.16098 171.995 6.64489 171.995 7.18182C171.995 7.72538 172.078 8.21922 172.243 8.66335C172.412 9.10417 172.661 9.45549 172.989 9.71733C173.32 9.97585 173.731 10.1051 174.222 10.1051ZM185.284 5.07386L184.23 5.37216C184.163 5.1965 184.066 5.0258 183.936 4.86009C183.81 4.69105 183.638 4.55185 183.419 4.44247C183.201 4.3331 182.921 4.27841 182.579 4.27841C182.112 4.27841 181.722 4.38613 181.411 4.60156C181.103 4.81368 180.949 5.08381 180.949 5.41193C180.949 5.7036 181.055 5.93395 181.267 6.10298C181.479 6.27202 181.81 6.41288 182.261 6.52557L183.395 6.80398C184.077 6.9697 184.586 7.22325 184.921 7.56463C185.256 7.9027 185.423 8.33854 185.423 8.87216C185.423 9.30966 185.297 9.70076 185.045 10.0455C184.797 10.3902 184.449 10.6619 184.001 10.8608C183.554 11.0597 183.033 11.1591 182.44 11.1591C181.661 11.1591 181.016 10.9901 180.506 10.652C179.996 10.3139 179.672 9.82008 179.537 9.17045L180.65 8.89205C180.756 9.30303 180.957 9.61127 181.252 9.81676C181.55 10.0223 181.94 10.125 182.42 10.125C182.967 10.125 183.401 10.009 183.723 9.77699C184.047 9.54167 184.21 9.25994 184.21 8.93182C184.21 8.66667 184.117 8.4446 183.931 8.26562C183.746 8.08333 183.461 7.94744 183.076 7.85795L181.804 7.55966C181.104 7.39394 180.591 7.13707 180.262 6.78906C179.938 6.43774 179.775 5.99858 179.775 5.47159C179.775 5.04072 179.896 4.65956 180.138 4.32812C180.383 3.99669 180.717 3.73651 181.137 3.54758C181.562 3.35866 182.042 3.2642 182.579 3.2642C183.335 3.2642 183.928 3.42992 184.359 3.76136C184.793 4.0928 185.101 4.5303 185.284 5.07386ZM189.436 11.179C188.952 11.179 188.513 11.0878 188.119 10.9055C187.724 10.7199 187.411 10.4531 187.179 10.1051C186.947 9.75379 186.831 9.32955 186.831 8.83239C186.831 8.39489 186.917 8.04025 187.09 7.76847C187.262 7.49337 187.492 7.27794 187.781 7.12216C188.069 6.96638 188.387 6.85038 188.735 6.77415C189.087 6.6946 189.44 6.63163 189.794 6.58523C190.258 6.52557 190.634 6.48082 190.923 6.45099C191.214 6.41785 191.427 6.36316 191.559 6.28693C191.695 6.2107 191.763 6.07812 191.763 5.8892V5.84943C191.763 5.3589 191.629 4.97775 191.36 4.70597C191.095 4.43419 190.692 4.2983 190.152 4.2983C189.592 4.2983 189.153 4.42093 188.835 4.66619C188.517 4.91146 188.293 5.1733 188.164 5.4517L187.05 5.05398C187.249 4.58996 187.514 4.22869 187.845 3.97017C188.18 3.70833 188.545 3.52604 188.939 3.4233C189.337 3.31723 189.728 3.2642 190.112 3.2642C190.358 3.2642 190.639 3.29403 190.958 3.35369C191.279 3.41004 191.589 3.5277 191.887 3.70668C192.189 3.88565 192.439 4.15578 192.638 4.51705C192.837 4.87831 192.936 5.36222 192.936 5.96875V11H191.763V9.96591H191.703C191.624 10.1316 191.491 10.3089 191.306 10.4979C191.12 10.6868 190.873 10.8475 190.565 10.9801C190.257 11.1127 189.88 11.179 189.436 11.179ZM189.615 10.125C190.079 10.125 190.47 10.0339 190.789 9.85156C191.11 9.66927 191.352 9.43395 191.514 9.1456C191.68 8.85724 191.763 8.55398 191.763 8.2358V7.16193C191.713 7.22159 191.604 7.27628 191.435 7.32599C191.269 7.3724 191.077 7.41383 190.858 7.45028C190.643 7.48343 190.432 7.51326 190.227 7.53977C190.025 7.56297 189.86 7.58286 189.735 7.59943C189.43 7.6392 189.145 7.70384 188.879 7.79332C188.618 7.8795 188.405 8.01042 188.243 8.18608C188.084 8.35843 188.004 8.59375 188.004 8.89205C188.004 9.29972 188.155 9.60795 188.457 9.81676C188.762 10.0223 189.148 10.125 189.615 10.125ZM197.961 11.1591C197.325 11.1591 196.763 10.9983 196.276 10.6768C195.789 10.352 195.408 9.89465 195.132 9.30469C194.857 8.71141 194.72 8.01042 194.72 7.2017C194.72 6.39962 194.857 5.7036 195.132 5.11364C195.408 4.52367 195.79 4.06794 196.281 3.74645C196.771 3.42495 197.338 3.2642 197.981 3.2642C198.478 3.2642 198.871 3.34706 199.159 3.51278C199.451 3.67519 199.673 3.8608 199.826 4.0696C199.981 4.27509 200.102 4.44413 200.189 4.5767H200.288V0.818182H201.461V11H200.328V9.8267H200.189C200.102 9.96591 199.98 10.1416 199.821 10.3537C199.662 10.5625 199.435 10.7498 199.14 10.9155C198.845 11.0779 198.452 11.1591 197.961 11.1591ZM198.12 10.1051C198.591 10.1051 198.989 9.98248 199.314 9.73722C199.638 9.48864 199.885 9.1456 200.054 8.7081C200.223 8.26728 200.308 7.75852 200.308 7.18182C200.308 6.61174 200.225 6.11293 200.059 5.68537C199.894 5.2545 199.648 4.91974 199.324 4.68111C198.999 4.43916 198.598 4.31818 198.12 4.31818C197.623 4.31818 197.209 4.44579 196.877 4.70099C196.549 4.95289 196.302 5.29593 196.137 5.73011C195.974 6.16098 195.893 6.64489 195.893 7.18182C195.893 7.72538 195.976 8.21922 196.142 8.66335C196.311 9.10417 196.559 9.45549 196.887 9.71733C197.219 9.97585 197.63 10.1051 198.12 10.1051Z" fill="#D9DBE1"/>
</svg>
